<?xml version="1.0" standalone="no"?>
<!DOCTYPE svg PUBLIC "-//W3C//DTD SVG 20010904//EN"
 "http://www.w3.org/TR/2001/REC-SVG-20010904/DTD/svg10.dtd">
<svg version="1.0" xmlns="http://www.w3.org/2000/svg"
 width="500.000000pt" height="500.000000pt" viewBox="0 0 500.000000 500.000000"
 preserveAspectRatio="xMidYMid meet">

<g transform="translate(0.000000,500.000000) scale(0.100000,-0.100000)"
fill="#000000" stroke="none">
<path d="M1340 4085 c-163 -31 -326 -101 -439 -188 -30 -23 -73 -56 -95 -73
-51 -38 -214 -221 -263 -295 -66 -100 -153 -249 -153 -264 0 -7 -4 -16 -9 -19
-14 -9 -117 -262 -145 -356 -106 -359 -143 -615 -133 -935 7 -239 30 -356 107
-533 60 -142 108 -211 212 -307 97 -90 243 -160 384 -185 93 -17 309 -8 384
15 145 44 251 114 389 254 135 138 172 181 216 252 6 9 28 40 50 69 22 30 60
86 85 126 25 40 63 101 85 135 22 35 52 86 67 114 15 27 33 57 39 67 19 26 85
147 125 228 20 41 43 79 50 85 7 5 29 42 49 82 20 39 43 77 51 83 8 7 14 19
14 28 0 8 10 31 22 51 13 19 28 44 33 55 22 43 51 25 95 -61 14 -26 37 -66 51
-88 14 -22 46 -74 71 -115 146 -245 177 -298 217 -368 24 -42 64 -108 90 -147
26 -38 50 -77 53 -86 3 -8 34 -56 69 -105 34 -49 84 -120 111 -159 60 -87 109
-144 220 -256 101 -102 163 -148 262 -195 123 -58 181 -69 366 -69 150 1 172
3 241 26 118 40 232 113 298 189 102 120 123 154 175 279 71 171 100 357 100
631 0 280 -30 500 -98 740 -3 8 -14 52 -26 98 -21 86 -27 102 -66 190 -13 29
-24 55 -24 57 0 3 -18 43 -40 90 -22 47 -40 89 -40 93 0 5 -13 26 -30 48 -16
21 -30 43 -30 47 0 4 -5 13 -10 20 -37 44 -70 91 -70 101 -1 27 -240 296 -263
296 -7 0 -23 12 -37 26 -56 60 -221 152 -345 193 -158 52 -346 54 -495 6 -47
-16 -89 -32 -95 -36 -5 -4 -40 -23 -77 -42 -91 -48 -193 -131 -308 -249 -83
-85 -210 -231 -255 -293 l-15 -20 -15 20 c-91 118 -303 337 -385 396 -24 18
-54 41 -65 51 -26 25 -134 88 -205 121 -176 80 -393 112 -550 82z m2280 -395
c84 -18 125 -34 175 -67 80 -52 99 -67 108 -80 4 -7 14 -13 21 -13 14 0 86
-73 86 -88 0 -4 22 -31 49 -59 27 -29 65 -83 85 -120 20 -38 46 -84 58 -103
79 -133 187 -491 224 -745 23 -156 26 -591 5 -675 -14 -59 -62 -167 -93 -212
-11 -15 -49 -45 -86 -65 -66 -38 -68 -38 -177 -38 -109 0 -111 0 -175 37 -106
61 -285 282 -425 526 -5 9 -34 52 -62 95 -29 42 -53 79 -53 81 0 3 -38 65 -85
140 -47 74 -85 138 -85 142 0 9 -68 121 -84 137 -6 6 -24 37 -40 67 -30 59
-74 129 -137 222 -21 31 -39 60 -39 63 0 4 -25 44 -56 88 -35 51 -53 86 -48
93 5 6 42 60 83 120 40 60 85 119 100 131 14 12 23 22 20 23 -21 1 238 240
260 240 5 0 16 6 23 13 7 7 42 23 78 35 71 23 191 29 270 12z m-1980 -125
c123 -43 210 -105 346 -246 72 -76 194 -223 252 -306 23 -32 29 -69 13 -75 -8
-2 -53 -69 -171 -248 -6 -8 -18 -29 -28 -47 -9 -17 -28 -46 -42 -63 -14 -17
-38 -55 -55 -85 -16 -29 -51 -85 -77 -124 -27 -39 -48 -76 -48 -81 0 -6 -3
-10 -8 -10 -4 0 -16 -17 -27 -37 -11 -21 -22 -40 -25 -43 -4 -3 -17 -23 -30
-45 -13 -22 -27 -42 -30 -45 -10 -9 -70 -101 -70 -108 0 -6 -165 -240 -190
-269 -5 -7 -10 -16 -10 -20 0 -5 -9 -14 -20 -21 -11 -7 -20 -16 -20 -20 0 -19
-169 -179 -215 -204 -136 -72 -278 -68 -411 11 -22 14 -45 32 -50 41 -5 10
-20 39 -33 66 -13 27 -30 56 -37 64 -7 8 -22 62 -34 120 -20 94 -21 126 -17
300 6 221 23 345 73 540 93 361 241 642 432 821 77 73 182 132 262 150 53 12
219 2 270 -16z"/>
</g>
</svg>
